<?xml version="1.0" ?>
<!DOCTYPE svg  PUBLIC '-//W3C//DTD SVG 1.1//EN'  'http://www.w3.org/Graphics/SVG/1.1/DTD/svg11.dtd'>
<!-- Uploaded to: SVG Repo, www.svgrepo.com, Generator: SVG Repo Mixer Tools -->
<svg width="800px" height="800px" viewBox="0 0 32 32" enable-background="new 0 0 32 32" version="1.1" xml:space="preserve" xmlns="http://www.w3.org/2000/svg" xmlns:xlink="http://www.w3.org/1999/xlink">
<g id="Layer_2"/>
<g id="Layer_3">
<path d="M21,29h-4V2c0-0.5527-0.4473-1-1-1s-1,0.4473-1,1v27h-4c-0.5527,0-1,0.4473-1,1s0.4473,1,1,1h10   c0.5527,0,1-0.4473,1-1S21.5527,29,21,29z" fill="#3F51B5"/>
<g>
<path d="M31,9c0,0.31-0.15,0.61-0.4,0.8l-4,3C26.43,12.93,26.22,13,26,13H2c-0.55,0-1-0.45-1-1V6    c0-0.55,0.45-1,1-1h24c0.22,0,0.43,0.07,0.6,0.2l4,3C30.85,8.39,31,8.69,31,9z" fill="#2197F3"/>
</g>
<g>
<path d="M31,16v6c0,0.55-0.45,1-1,1H6c-0.22,0-0.43-0.07-0.6-0.2l-4-3C1.15,19.61,1,19.31,1,19s0.15-0.61,0.4-0.8    l4-3C5.57,15.07,5.78,15,6,15h24C30.55,15,31,15.45,31,16z" fill="#2197F3"/>
</g>
</g>
<g id="Layer_4"/>
<g id="Layer_5"/>
<g id="Layer_6"/>
<g id="Layer_7"/>
<g id="Layer_8"/>
<g id="Layer_9"/>
<g id="Layer_10"/>
<g id="Layer_11"/>
<g id="Layer_12"/>
<g id="Layer_13"/>
<g id="Layer_14"/>
<g id="Layer_15"/>
<g id="Layer_16"/>
<g id="Layer_17"/>
<g id="Layer_18"/>
<g id="Layer_19"/>
<g id="Maps_11_"/>
<g id="Maps_10_"/>
<g id="Maps_9_"/>
<g id="Maps_8_"/>
<g id="Maps_7_"/>
<g id="Maps_6_"/>
<g id="Maps_5_"/>
<g id="Maps_4_"/>
<g id="Maps_3_"/>
<g id="Maps_2_"/>
<g id="Maps_1_"/>
<g id="Maps"/>
</svg>