<?xml version="1.0" ?>
<!DOCTYPE svg  PUBLIC '-//W3C//DTD SVG 1.1//EN'  'http://www.w3.org/Graphics/SVG/1.1/DTD/svg11.dtd'>
<!-- Uploaded to: SVG Repo, www.svgrepo.com, Generator: SVG Repo Mixer Tools -->
<svg width="800px" height="800px" viewBox="0 0 32 32" enable-background="new 0 0 32 32" version="1.1" xml:space="preserve" xmlns="http://www.w3.org/2000/svg" xmlns:xlink="http://www.w3.org/1999/xlink">
<g id="Layer_2"/>
<g id="Layer_3"/>
<g id="Layer_4"/>
<g id="Layer_5"/>
<g id="Layer_6"/>
<g id="Layer_7">
<path d="M16,1C7.73,1,1,7.73,1,16c0,8.27,6.73,15,15,15s15-6.73,15-15C31,7.73,24.27,1,16,1z" fill="#3F51B5"/>
<path d="M26,17h2.95C28.46,23.37,23.37,28.46,17,28.95V26c0-0.55-0.45-1-1-1s-1,0.45-1,1v2.95   C8.63,28.46,3.54,23.37,3.05,17H6c0.55,0,1-0.45,1-1s-0.45-1-1-1H3.05C3.54,8.63,8.63,3.54,15,3.05V6c0,0.55,0.45,1,1,1s1-0.45,1-1   V3.05C23.37,3.54,28.46,8.63,28.95,15H26c-0.55,0-1,0.45-1,1S25.45,17,26,17z" fill="#2197F3"/>
<g>
<path d="M24.49,7.51c-0.28-0.27-0.7-0.36-1.06-0.22l-11.32,4.24c-0.27,0.1-0.48,0.31-0.58,0.58L7.29,23.43    c-0.14,0.36-0.05,0.78,0.22,1.06c0.2,0.19,0.45,0.29,0.71,0.29c0.1201,0,0.2401-0.02,0.35-0.07l11.32-4.24    c0.27-0.1,0.48-0.31,0.58-0.58L24.71,8.57C24.85,8.21,24.76,7.79,24.49,7.51z M17.41,17.41C17.04,17.79,16.53,18,16,18    s-1.04-0.21-1.41-0.59C14.21,17.04,14,16.53,14,16c0-0.53,0.21-1.04,0.59-1.41c0.75-0.76,2.0699-0.76,2.8199,0    C17.79,14.96,18,15.47,18,16C18,16.53,17.79,17.04,17.41,17.41z" fill="#3F51B5"/>
</g>
<g>
<path d="M18,16c0,0.53-0.21,1.04-0.59,1.41C17.04,17.79,16.53,18,16,18s-1.04-0.21-1.41-0.59    C14.21,17.04,14,16.53,14,16c0-0.53,0.21-1.04,0.59-1.41c0.75-0.76,2.0699-0.76,2.8199,0C17.79,14.96,18,15.47,18,16z" fill="#2197F3"/>
</g>
</g>
<g id="Layer_8"/>
<g id="Layer_9"/>
<g id="Layer_10"/>
<g id="Layer_11"/>
<g id="Layer_12"/>
<g id="Layer_13"/>
<g id="Layer_14"/>
<g id="Layer_15"/>
<g id="Layer_16"/>
<g id="Layer_17"/>
<g id="Layer_18"/>
<g id="Layer_19"/>
<g id="Maps_11_"/>
<g id="Maps_10_"/>
<g id="Maps_9_"/>
<g id="Maps_8_"/>
<g id="Maps_7_"/>
<g id="Maps_6_"/>
<g id="Maps_5_"/>
<g id="Maps_4_"/>
<g id="Maps_3_"/>
<g id="Maps_2_"/>
<g id="Maps_1_"/>
<g id="Maps"/>
</svg>