<?xml version="1.0" ?>
<!DOCTYPE svg  PUBLIC '-//W3C//DTD SVG 1.1//EN'  'http://www.w3.org/Graphics/SVG/1.1/DTD/svg11.dtd'>
<!-- Uploaded to: SVG Repo, www.svgrepo.com, Generator: SVG Repo Mixer Tools -->
<svg width="800px" height="800px" viewBox="0 0 32 32" enable-background="new 0 0 32 32" version="1.1" xml:space="preserve" xmlns="http://www.w3.org/2000/svg" xmlns:xlink="http://www.w3.org/1999/xlink">
<g id="Layer_2"/>
<g id="Layer_3"/>
<g id="Layer_4"/>
<g id="Layer_5"/>
<g id="Layer_6"/>
<g id="Layer_7"/>
<g id="Layer_8"/>
<g id="Layer_9"/>
<g id="Layer_10"/>
<g id="Layer_11"/>
<g id="Layer_12"/>
<g id="Layer_13"/>
<g id="Layer_14"/>
<g id="Layer_15"/>
<g id="Layer_16"/>
<g id="Layer_17">
<path d="M16,1c-3.86,0-7,3.09-7,6.89c0,3.58,5.66,9.2,6.3,9.83C15.5,17.91,15.75,18,16,18s0.5-0.09,0.7-0.28   c0.64-0.63,6.3-6.25,6.3-9.83C23,4.09,19.86,1,16,1z" fill="#3F51B5"/>
<g>
<g>
<path d="M10.5393,17.1082c-0.04-0.0191-0.09-0.0318-0.13-0.0445c0.03,0,0.06,0.0127,0.08,0.0191     C10.5093,17.0891,10.5293,17.0954,10.5393,17.1082z" fill="#16BCD4"/>
</g>
<path d="M22.5093,17.0954c-0.05-0.0191-0.11-0.0382-0.17-0.0509c0.03,0,0.06,0.0127,0.09,0.0191    C22.4593,17.07,22.4893,17.0827,22.5093,17.0954z" fill="#16BCD4"/>
<path d="M30.9593,30.16l-1.98-10.0545c-0.03-0.1846-0.19-0.35-0.44-0.4518l-5.89-2.4945    c-0.04-0.0255-0.09-0.0445-0.14-0.0637c-0.05-0.0191-0.11-0.0382-0.17-0.0509c-0.02-0.0127-0.05-0.0191-0.09-0.0255    c-0.03,0-0.06-0.0064-0.09-0.0064C22.1093,17,22.0493,17,21.9893,17c-0.08,0-0.17,0.0064-0.26,0.0254    c-0.05,0.0064-0.11,0.0191-0.16,0.0382c-0.03,0-0.06,0.0127-0.08,0.0191c-0.02,0.0064-0.04,0.0127-0.05,0.0254l-0.02,0.0064    l-5.43,2.3036l-5.43-2.3036l-0.02-0.0064c-0.04-0.0191-0.09-0.0318-0.13-0.0445c-0.05-0.0191-0.11-0.0318-0.16-0.0382    c-0.09-0.0191-0.18-0.0254-0.26-0.0254c-0.03,0-0.06,0-0.08,0.0064c-0.03-0.0064-0.06,0-0.08,0.0063    c-0.03,0-0.07,0.0064-0.1,0.0064c-0.04,0.0064-0.07,0.0127-0.09,0.0255h-0.01c-0.03,0-0.05,0.0127-0.08,0.0191    c-0.03,0.0064-0.06,0.0191-0.08,0.0318c-0.05,0.0191-0.1,0.0382-0.14,0.0637l-5.89,2.4945c-0.25,0.1018-0.41,0.2673-0.44,0.4518    l-2,10.1818c-0.05,0.2355,0.12,0.4709,0.44,0.6045c0.16,0.07,0.36,0.1082,0.55,0.1082c0.17,0,0.34-0.0255,0.5-0.0827l6.5-2.3609    l0.09,0.0318l6.41,2.3291c0.03,0.0127,0.06,0.0191,0.1,0.0254c0.05,0.0191,0.11,0.0318,0.1801,0.0382    c0.0699,0.0127,0.15,0.0191,0.22,0.0191s0.14-0.0064,0.2-0.0127c0.06-0.0127,0.12-0.0254,0.18-0.0382    c0.01,0,0.01-0.0064,0.02-0.0064c0.04-0.0064,0.0699-0.0127,0.1-0.0254l6.41-2.3291v-0.07l0.09,0.0382l6.5,2.3609    c0.16,0.0573,0.33,0.0827,0.5,0.0827c0.01,0,0.02,0,0.02,0c0.55,0,1-0.2864,1-0.6364    C31.0093,30.2936,30.9893,30.2236,30.9593,30.16z" fill="#16BCD4"/>
<g>
<path d="M31.0093,30.3636c0,0.35-0.45,0.6364-1,0.6364c0,0-0.01,0-0.02,0c-0.17,0-0.34-0.0255-0.5-0.0827     l-6.5-2.3609l-0.09-0.0382L21.9893,17c0.06,0,0.12,0,0.17,0.0127c0.03,0,0.06,0.0064,0.09,0.0064     c0.04,0.0064,0.07,0.0127,0.09,0.0255c0.06,0.0127,0.12,0.0318,0.17,0.0509c0.05,0.0191,0.1,0.0382,0.14,0.0637l5.89,2.4945     c0.25,0.1018,0.41,0.2673,0.44,0.4518l1.98,10.0545C30.9893,30.2236,31.0093,30.2936,31.0093,30.3636z" fill="#2197F3"/>
<path d="M21.5693,17.0636c-0.04,0.0127-0.09,0.0255-0.13,0.0445c0.01-0.0127,0.03-0.0191,0.05-0.0254     C21.5093,17.0764,21.5393,17.0636,21.5693,17.0636z" fill="#2197F3"/>
</g>
<path d="M15.9893,19.4182V31c-0.07,0-0.15-0.0064-0.22-0.0191c-0.07-0.0064-0.13-0.0191-0.1801-0.0382    c-0.04-0.0064-0.0699-0.0127-0.1-0.0254l-6.41-2.3291v-0.07L9.9893,17c0.08,0,0.17,0.0064,0.26,0.0254    c0.05,0.0064,0.11,0.0191,0.16,0.0382c0.04,0.0127,0.09,0.0255,0.13,0.0445l0.02,0.0064L15.9893,19.4182z" fill="#2197F3"/>
</g>
<path d="M18,7.89c0,1.11-0.9,2-2,2s-2-0.89-2-2c0-1.1,0.9-2,2-2S18,6.79,18,7.89z" fill="#2197F3"/>
</g>
<g id="Layer_18"/>
<g id="Layer_19"/>
<g id="Maps_11_"/>
<g id="Maps_10_"/>
<g id="Maps_9_"/>
<g id="Maps_8_"/>
<g id="Maps_7_"/>
<g id="Maps_6_"/>
<g id="Maps_5_"/>
<g id="Maps_4_"/>
<g id="Maps_3_"/>
<g id="Maps_2_"/>
<g id="Maps_1_"/>
<g id="Maps"/>
</svg>