<?xml version="1.0" encoding="utf-8"?>
<!-- Uploaded to: SVG Repo, www.svgrepo.com, Generator: SVG Repo Mixer Tools -->
<svg fill="#000000" height="800px" width="800px" version="1.1" id="Layer_1" xmlns="http://www.w3.org/2000/svg" xmlns:xlink="http://www.w3.org/1999/xlink" 
	 viewBox="0 0 256 256" xml:space="preserve">
<g>
	<circle cx="128" cy="26.9" r="24.5"/>
	<path d="M222.8,164.7L222.8,164.7c0-3.9-1.5-7.8-4.5-10.8c-3-3-6.9-4.5-10.8-4.5H192c0.5-0.6,1-1.2,1.4-1.9l24.5-42.4
		c3-5.1,1.2-11.7-3.9-14.6l-47.5-27.4c-4.3-3.1-9.2-5-14.3-5.5L128,57.5h0h0l-24.2,0.1c-5,0.6-9.9,2.5-14.3,5.5L42,90.5
		c-5.1,3-6.9,9.5-3.9,14.6l24.5,42.4c0.4,0.7,0.9,1.3,1.4,1.9H48.5c-3.9,0-7.8,1.5-10.8,4.5c-3,3-4.5,6.9-4.5,10.8v0l0,73.7
		c0,8.4,6.8,15.3,15.3,15.3s15.3-6.8,15.3-15.3V180H128h64.2v58.4c0,8.4,6.9,15.3,15.3,15.3s15.3-6.8,15.3-15.3L222.8,164.7z
		 M94.4,112.5v36.9H79.7c3.1-3.4,3.8-8.4,1.4-12.6L62,103.7l27.7-16c0.5-0.3,1-0.5,1.6-0.5c1.7,0,3.1,1.4,3.1,3.1V112.5z
		 M161.6,90.3c0-1.7,1.4-3.1,3.1-3.1c0.6,0,1.1,0.2,1.6,0.5l27.7,16l-19.1,33.1c-2.4,4.1-1.7,9.2,1.4,12.6h-14.6V90.3z"/>
</g>
</svg>