<?xml version="1.0" encoding="utf-8"?>
<!-- Uploaded to: SVG Repo, www.svgrepo.com, Generator: SVG Repo Mixer Tools -->
<svg fill="#000000" height="800px" width="800px" version="1.1" id="_x31_" xmlns="http://www.w3.org/2000/svg" xmlns:xlink="http://www.w3.org/1999/xlink" 
	 viewBox="0 0 128 128" xml:space="preserve">
<g>
	<circle cx="19.8" cy="45.6" r="10.8"/>
	<path d="M53.2,83.1c-2.5-2.3-6.3-2.5-8.9-0.3L31.7,93.1c0.8-7.6,1.3-15.8,1.3-15.9c0-9.1-6.6-16.5-15.2-18c0,0-1.1-0.1-1.4-0.1
		c-3.4,0-6.1,2.7-6.1,6.1c0,0.1,0,40.6,0,40.6c0,1.7,1,3.3,2.4,4.1c0.7,0.4,1.5,0.7,2.3,0.7c2.6,0,4.7-2.2,4.7-4.7v-3V75.3
		c0-0.8,0.5-1.4,1.4-1.4c0.8,0,1.4,0.5,1.4,1.4v25.2v5.2c0,1.8-0.7,3.4-1.6,4.7c-1.4,1.6-3.4,2.7-5.8,2.7c-0.7,0-2.5-0.3-3.2-0.5
		l1.1,2.3c0.2,0.5,0.5,0.9,0.8,1.3c1.3,1.6,3.3,2.5,5.2,2.5c1.5,0,3-0.5,4.3-1.5l3.2-2.6l21.6-17.7l21,19.9c2.7,2.6,7,2.5,9.6-0.3
		c2.6-2.7,2.5-7-0.3-9.6L53.2,83.1z"/>
	<path d="M100.1,8.3c-2.1,0-4.2,0.4-6.1,1c7.7,2.6,13.2,9.8,13.2,18.3S101.6,43.5,94,46c1.9,0.6,4,1,6.1,1
		c10.7,0,19.3-8.7,19.3-19.3C119.4,17,110.8,8.3,100.1,8.3z"/>
	<polygon points="72.9,24.8 76.4,22.9 79.9,24.8 79.2,20.9 82.1,18.1 78.2,17.5 76.4,14 74.6,17.5 70.7,18.1 73.6,20.9 	"/>
	<polygon points="63.7,38.2 66.1,37 68.6,38.2 68.1,35.5 70.1,33.6 67.4,33.2 66.1,30.7 64.9,33.2 62.2,33.6 64.2,35.5 	"/>
	<polygon points="84.5,42.5 83.2,40 82,42.5 79.2,42.9 81.2,44.9 80.7,47.7 83.2,46.4 85.7,47.7 85.3,44.9 87.3,42.9 	"/>
</g>
</svg>